<svg xmlns="http://www.w3.org/2000/svg" width="351" height="49" fill="none"><path fill="#E1937D" d="M33.54 22.066a7.355 7.355 0 1 0 0-14.711 7.355 7.355 0 0 0 0 14.71Z"/><path fill="#E1937D" d="M33.54 36.777a7.356 7.356 0 1 0 0-14.71 7.356 7.356 0 0 0 0 14.71ZM8.04 22.066a7.355 7.355 0 1 0 0-14.711 7.355 7.355 0 0 0 0 14.71Zm12.75-7.355A7.356 7.356 0 1 0 20.79 0a7.356 7.356 0 0 0 0 14.711Z"/><path fill="#E1937D" d="M8.04 36.777a7.356 7.356 0 1 0 0-14.71 7.356 7.356 0 0 0 0 14.71Z"/><path fill="#E1937D" d="M20.79 44.133a7.355 7.355 0 1 0 0-14.71 7.355 7.355 0 0 0 0 14.71Z"/><path fill="#0D0503" d="M60.344 38.024c-.03 0-.522-.03-1.475-.091-.924-.03-1.997-.152-3.22-.365a26.764 26.764 0 0 0-2.771-.364c-.805-.091-1.297-.137-1.476-.137-.03-2.52-.164-5.571-.402-9.154a5.65 5.65 0 0 1 .715-.046h.716c.566 2.672 1.505 4.737 2.816 6.194 1.342 1.458 3.1 2.187 5.276 2.187 1.937 0 3.517-.532 4.74-1.594 1.221-1.094 1.832-2.52 1.832-4.282 0-1.336-.343-2.429-1.028-3.279-.656-.85-1.535-1.564-2.638-2.14a33.253 33.253 0 0 0-3.443-1.686 65.334 65.334 0 0 1-4.113-2.004c-1.281-.728-2.34-1.654-3.174-2.778-.835-1.123-1.252-2.58-1.252-4.372 0-1.913.462-3.553 1.386-4.919.954-1.366 2.22-2.399 3.8-3.097 1.58-.729 3.324-1.093 5.231-1.093.596 0 1.207.03 1.833.091.656.06 1.327.152 2.012.273.865.122 1.52.198 1.967.228.477.03.79.046.94.046h.491c.239-.03.432-.061.581-.092.06 1.336.12 2.718.18 4.145.059 1.427.148 2.915.267 4.463-.596.091-1.088.122-1.475.091-.686-2.641-1.535-4.539-2.548-5.693-1.014-1.184-2.46-1.776-4.337-1.776-1.64 0-3.04.456-4.203 1.367-1.162.88-1.744 2.2-1.744 3.962 0 .941.21 1.776.627 2.505.447.729 1.177 1.427 2.19 2.095 1.014.668 2.414 1.381 4.203 2.14.983.426 1.967.896 2.95 1.412a13.532 13.532 0 0 1 2.772 1.868 7.839 7.839 0 0 1 2.012 2.596c.507 1.002.76 2.201.76 3.598 0 2.064-.506 3.825-1.52 5.283-1.013 1.427-2.354 2.52-4.023 3.28-1.64.758-3.458 1.138-5.455 1.138Zm24.584-.091c-2.116 0-3.904-.501-5.365-1.503-1.46-1.002-2.578-2.338-3.353-4.008-.745-1.7-1.118-3.568-1.118-5.602 0-2.095.388-4.038 1.163-5.83.805-1.791 1.967-3.234 3.487-4.327 1.52-1.123 3.368-1.685 5.544-1.685 2.623 0 4.665.805 6.125 2.414 1.49 1.579 2.236 3.628 2.236 6.149 0 .303-.015.576-.045.82 0 .212-.015.394-.045.546l-14.083-.137v.32c0 2.975.67 5.313 2.012 7.013 1.341 1.7 3.219 2.55 5.633 2.55 2.027 0 4.024-.667 5.991-2.003.298.364.522.713.67 1.047-2.533 2.824-5.484 4.236-8.852 4.236Zm-5.32-14.848 9.255-.182a.516.516 0 0 0 .044-.228v-.227c0-1.64-.357-3.006-1.073-4.1-.685-1.093-1.713-1.64-3.085-1.64-1.281 0-2.399.532-3.353 1.595-.953 1.063-1.55 2.657-1.788 4.782ZM96.78 37.432a3.749 3.749 0 0 1 0-1.412c1.013-.06 1.758-.152 2.235-.274.477-.151.79-.455.939-.91.149-.456.223-1.184.223-2.186V22.448c0-1.185-.059-2.065-.179-2.642-.09-.577-.372-.972-.85-1.184-.446-.243-1.221-.44-2.324-.592-.09-.425-.09-.82 0-1.184a58.665 58.665 0 0 0 3.487-.82 36.467 36.467 0 0 0 3.577-1.275l.76.273v4.008c2.086-2.703 4.218-4.054 6.393-4.054 1.044 0 1.819.289 2.325.866.507.546.76 1.168.76 1.867 0 .82-.268 1.457-.804 1.913a2.874 2.874 0 0 1-1.833.637c-.567 0-1.133-.151-1.699-.455-.537-.304-.939-.774-1.208-1.412-1.013 0-1.922.41-2.727 1.23-.775.79-1.162 1.715-1.162 2.778v9.792c0 1.184.059 2.034.179 2.55.149.517.506.85 1.073 1.002.596.122 1.55.213 2.861.274.06.425.06.895 0 1.412-1.013 0-2.057-.016-3.13-.046a117.21 117.21 0 0 0-3.308-.045c-1.103 0-2.086.015-2.95.045a72.59 72.59 0 0 1-2.639.046Zm27.836.501c-2.116 0-3.904-.501-5.365-1.503-1.46-1.002-2.578-2.338-3.353-4.008-.745-1.7-1.118-3.568-1.118-5.602 0-2.095.388-4.038 1.163-5.83.804-1.791 1.967-3.234 3.487-4.327 1.52-1.123 3.368-1.685 5.544-1.685 2.623 0 4.664.805 6.125 2.414 1.49 1.579 2.235 3.628 2.235 6.149 0 .303-.015.576-.044.82 0 .212-.015.394-.045.546l-14.083-.137v.32c0 2.975.67 5.313 2.012 7.013 1.341 1.7 3.219 2.55 5.633 2.55 2.027 0 4.024-.667 5.991-2.003.298.364.521.713.67 1.047-2.533 2.824-5.484 4.236-8.852 4.236Zm-5.32-14.848 9.254-.182a.513.513 0 0 0 .045-.228v-.227c0-1.64-.357-3.006-1.073-4.1-.685-1.093-1.714-1.64-3.085-1.64-1.281 0-2.399.532-3.353 1.595-.954 1.063-1.55 2.657-1.788 4.782Zm31.165 14.347a5.558 5.558 0 0 1 0-1.412c.924-.06 1.609-.152 2.057-.274.447-.151.745-.455.894-.91.149-.456.223-1.184.223-2.186v-9.2c0-1.822-.283-3.173-.849-4.054-.537-.91-1.625-1.366-3.264-1.366-.864 0-1.699.167-2.504.5-.804.304-1.684.896-2.637 1.777v11.887c0 1.184.059 2.034.178 2.55.149.517.447.85.895 1.002.447.122 1.147.213 2.101.274.059.455.059.926 0 1.412a81.53 81.53 0 0 1-2.638-.046 86.172 86.172 0 0 0-2.906-.045c-.954 0-1.893.015-2.817.045-.924.03-1.833.046-2.727.046a3.765 3.765 0 0 1 0-1.412c1.013-.06 1.759-.152 2.236-.274.476-.151.789-.455.938-.91.149-.456.224-1.184.224-2.186V22.448c0-1.185-.06-2.065-.179-2.642-.089-.577-.372-.972-.849-1.184-.447-.243-1.222-.44-2.325-.592-.09-.425-.09-.82 0-1.184 2.563-.517 4.918-1.215 7.064-2.095l.76.273v3.416c1.371-1.276 2.712-2.171 4.024-2.688 1.311-.516 2.563-.774 3.755-.774 1.967 0 3.473.592 4.516 1.777 1.043 1.184 1.565 2.884 1.565 5.1v10.34c0 1.183.059 2.033.178 2.55.149.516.447.85.895 1.002.447.121 1.162.212 2.146.273.059.455.059.926 0 1.412-.895 0-1.774-.016-2.638-.046a82.748 82.748 0 0 0-2.951-.045 81.21 81.21 0 0 0-2.906.045c-.805.03-1.625.046-2.459.046Zm24.122 0c-.835 0-1.699-.016-2.593-.046a94.35 94.35 0 0 0-5.812 0 87.1 87.1 0 0 1-2.772.046 3.724 3.724 0 0 1 0-1.412c1.013-.06 1.758-.152 2.235-.274.477-.151.79-.455.939-.91.149-.456.224-1.184.224-2.186V22.448c0-1.185-.045-2.065-.134-2.642-.09-.577-.373-.972-.85-1.184-.447-.243-1.237-.44-2.369-.592-.09-.425-.09-.82 0-1.184a34.096 34.096 0 0 0 3.755-.911c1.192-.365 2.34-.76 3.443-1.184l.76.273c-.03.941-.06 1.822-.09 2.641v14.529c0 1.184.06 2.034.179 2.55.149.517.447.85.894 1.002.477.122 1.207.213 2.191.274.089.455.089.926 0 1.412Zm-8.942-30.424c0-.88.298-1.625.894-2.232a3.102 3.102 0 0 1 2.236-.91c.834 0 1.55.303 2.146.91.626.607.939 1.336.939 2.186 0 .79-.298 1.519-.894 2.187-.596.637-1.357.956-2.281.956-.834 0-1.549-.304-2.146-.91a3.01 3.01 0 0 1-.894-2.187Zm19.666 30.925c-1.789 0-3.205-.425-4.248-1.276-1.043-.88-1.565-2.14-1.565-3.78 0-2.672.015-5.253.045-7.742.06-2.49.104-4.889.134-7.196h-3.398c-.089-.456-.089-.866 0-1.23 2.951-1.275 5.172-3.355 6.662-6.24.238 0 .477.016.715.046.239 0 .447.015.626.045-.03.79-.059 1.625-.089 2.505 0 .88-.015 1.807-.045 2.779h6.796a8.249 8.249 0 0 1 0 2.095h-6.796a434.69 434.69 0 0 0-.134 6.74v7.06c0 2.459 1.252 3.689 3.755 3.689a5.552 5.552 0 0 0 2.996-.866c.268.365.432.82.492 1.367-1.759 1.336-3.741 2.004-5.946 2.004Z"/><path fill="#0D0503" d="M195.916 49c-.805 0-1.431-.243-1.878-.729a2.344 2.344 0 0 1-.626-1.64c0-.85.448-1.684 1.342-2.504.894-.79 2.354-1.184 4.381-1.184.388-.699.76-1.458 1.118-2.278.387-.79.834-1.776 1.341-2.96a670.86 670.86 0 0 1-1.252-3.28 196.034 196.034 0 0 0-1.743-4.417 2461.47 2461.47 0 0 1-1.923-5.055 670.569 670.569 0 0 0-1.922-5.101c-.358-.972-.76-1.64-1.207-2.005-.418-.364-1.237-.607-2.459-.728-.09-.425-.09-.896 0-1.412.864 0 1.743.015 2.637.045a82.744 82.744 0 0 0 5.589 0 88.463 88.463 0 0 1 2.593-.045c.06.455.06.926 0 1.412-1.013.06-1.729.167-2.146.319-.387.151-.581.455-.581.91 0 .426.149 1.078.447 1.959a221.57 221.57 0 0 0 2.235 5.966c.746 1.822 1.491 3.69 2.236 5.602a321.762 321.762 0 0 0 2.504-5.966 206.44 206.44 0 0 0 2.235-5.511c.328-.88.492-1.533.492-1.958 0-.425-.224-.73-.671-.911-.447-.183-1.237-.32-2.369-.41a3.724 3.724 0 0 1 0-1.412c.745 0 1.505.015 2.28.045.804.03 1.654.046 2.548.046.596 0 1.237-.015 1.923-.046.715-.03 1.356-.045 1.922-.045.089.455.089.926 0 1.412-1.252.09-2.101.38-2.548.865-.447.456-.865 1.154-1.252 2.095l-7.645 18.172c-.149.365-.418.972-.805 1.822-.388.88-.805 1.776-1.252 2.687a67.484 67.484 0 0 1-1.073 2.323c-.745 1.488-1.475 2.505-2.191 3.052-.715.577-1.475.865-2.28.865Zm49.482-18.537 9.567-24.958c.626.03 1.282.045 1.967.045h3.041a45.53 45.53 0 0 1 2.101-.045h2.101c.656-.03 1.103-.046 1.341-.046.09.456.09.926 0 1.412h-.089c-1.371.152-2.369.304-2.995.456-.626.121-1.014.425-1.163.91-.119.456-.179 1.215-.179 2.278l.358 21.27c0 .94.03 1.684.089 2.23.06.547.224.942.492 1.185.268.243.701.425 1.297.546.596.092 1.445.183 2.548.274.09.455.09.926 0 1.412-.238 0-.685-.016-1.341-.046h-4.203a31.934 31.934 0 0 0-1.296-.045c-.239 0-.671.015-1.297.045h-4.113a32.79 32.79 0 0 1-1.297.046 11.465 11.465 0 0 1 0-1.412h.09c1.311-.152 2.265-.289 2.861-.41.596-.152.954-.456 1.073-.911.149-.486.224-1.26.224-2.323l-.403-24.412-11.266 29.377c-.209.09-.537.151-.984.182-.447.03-.834.045-1.162.045L232.164 8.921l-.716 23.455c-.029 1.002.015 1.73.135 2.186.119.425.476.73 1.073.911.596.182 1.594.365 2.995.547.119.486.119.956 0 1.412-.298 0-.82-.016-1.565-.046h-2.19a41.493 41.493 0 0 0-1.565-.045c-.179 0-.537.015-1.073.045h-3.443c-.507.03-.849.046-1.028.046a5.558 5.558 0 0 1 0-1.412c1.401-.182 2.399-.365 2.995-.547.596-.182.969-.546 1.118-1.093.179-.546.283-1.412.313-2.596l.849-21.27c.06-1.062.015-1.82-.134-2.276-.149-.456-.551-.76-1.207-.911-.626-.182-1.669-.334-3.129-.456-.03-.486-.03-.956 0-1.412 1.013 0 2.056.016 3.129.046s2.265.045 3.577.045h1.788c.745 0 1.431-.015 2.057-.045l9.255 24.958Zm34.146 6.969c-.835 0-1.699-.016-2.593-.046a94.35 94.35 0 0 0-5.812 0 87.1 87.1 0 0 1-2.772.046 3.724 3.724 0 0 1 0-1.412c1.013-.06 1.758-.152 2.235-.274.477-.151.79-.455.939-.91.149-.456.224-1.184.224-2.186V22.448c0-1.185-.045-2.065-.135-2.642-.089-.577-.372-.972-.849-1.184-.447-.243-1.237-.44-2.37-.592a2.656 2.656 0 0 1 0-1.184 34.06 34.06 0 0 0 3.756-.911c1.192-.365 2.34-.76 3.442-1.184l.761.273c-.03.941-.06 1.822-.09 2.641v14.529c0 1.184.06 2.034.179 2.55.149.517.447.85.894 1.002.477.122 1.207.213 2.191.274.089.455.089.926 0 1.412Zm-8.942-30.424c0-.88.298-1.625.894-2.232a3.1 3.1 0 0 1 2.236-.91c.834 0 1.55.303 2.146.91.626.607.939 1.336.939 2.186 0 .79-.298 1.519-.895 2.187-.596.637-1.356.956-2.28.956-.834 0-1.55-.304-2.146-.91a3.01 3.01 0 0 1-.894-2.187Zm25.075 30.424a5.558 5.558 0 0 1 0-1.412c.924-.06 1.61-.152 2.057-.274.447-.151.745-.455.894-.91.149-.456.223-1.184.223-2.186v-9.2c0-1.822-.283-3.173-.849-4.054-.537-.91-1.624-1.366-3.264-1.366-.864 0-1.699.167-2.503.5-.805.304-1.685.896-2.638 1.777v11.887c0 1.184.059 2.034.179 2.55.149.517.447.85.894 1.002.447.122 1.147.213 2.101.274.06.455.06.926 0 1.412a81.53 81.53 0 0 1-2.638-.046 86.172 86.172 0 0 0-2.906-.045c-.954 0-1.893.015-2.817.045-.924.03-1.833.046-2.727.046a3.765 3.765 0 0 1 0-1.412c1.014-.06 1.759-.152 2.236-.274.477-.151.79-.455.939-.91.149-.456.223-1.184.223-2.186V22.448c0-1.185-.06-2.065-.179-2.642-.089-.577-.372-.972-.849-1.184-.447-.243-1.222-.44-2.325-.592a2.656 2.656 0 0 1 0-1.184c2.563-.517 4.918-1.215 7.064-2.095l.76.273v3.416c1.371-1.276 2.712-2.171 4.024-2.688 1.311-.516 2.563-.774 3.755-.774 1.967 0 3.473.592 4.516 1.777 1.043 1.184 1.565 2.884 1.565 5.1v10.34c0 1.183.059 2.033.179 2.55.149.516.447.85.894 1.002.447.121 1.162.212 2.146.273.059.455.059.926 0 1.412a75.06 75.06 0 0 1-2.638-.046 82.748 82.748 0 0 0-2.951-.045 81.25 81.25 0 0 0-2.906.045c-.805.03-1.624.046-2.459.046Zm30.337.546-.716-.319-.178-3.142c-1.044 1.154-2.117 2.019-3.219 2.596-1.074.546-2.266.82-3.577.82-1.848 0-3.473-.501-4.873-1.503-1.372-1.033-2.43-2.369-3.175-4.008-.745-1.64-1.117-3.416-1.117-5.329 0-2.216.462-4.236 1.385-6.057.954-1.822 2.281-3.28 3.98-4.373 1.728-1.123 3.74-1.685 6.035-1.685.686 0 1.401.06 2.146.182.745.091 1.52.258 2.325.501v-5.83c0-.94-.089-1.639-.268-2.094-.179-.486-.537-.82-1.073-1.002-.507-.213-1.282-.365-2.325-.456a2.864 2.864 0 0 1 0-1.23 33.545 33.545 0 0 0 3.666-.683A26.563 26.563 0 0 0 328.875 3l.76.273c-.03.668-.059 1.427-.089 2.277v25.37c0 1.154.044 2.019.134 2.596.089.577.358.987.805 1.23.447.212 1.207.41 2.28.592.089.394.089.804 0 1.23-1.192.181-2.355.379-3.488.591-1.132.213-2.22.486-3.263.82Zm-.939-18.445c-1.282-1.792-2.966-2.688-5.052-2.688-2.057 0-3.607.775-4.65 2.323-1.043 1.518-1.565 3.629-1.565 6.331 0 1.579.209 3.097.626 4.555.417 1.457 1.103 2.656 2.057 3.598.954.94 2.22 1.411 3.8 1.411 1.997 0 3.592-.88 4.784-2.641v-12.89Zm11.931 10.657c.447 2.004 1.163 3.537 2.146 4.6.984 1.032 2.25 1.549 3.8 1.549 1.163 0 2.146-.274 2.951-.82.805-.577 1.207-1.473 1.207-2.687 0-.911-.223-1.64-.67-2.187-.418-.546-1.014-1.001-1.789-1.366a29.846 29.846 0 0 0-2.548-1.184 37.727 37.727 0 0 1-3.13-1.457c-.953-.547-1.743-1.215-2.369-2.004-.596-.82-.894-1.868-.894-3.143 0-1.457.372-2.657 1.117-3.598a7.16 7.16 0 0 1 2.951-2.186 10.434 10.434 0 0 1 3.89-.729c.685 0 1.371.046 2.056.137a24.15 24.15 0 0 0 1.118.136 18.17 18.17 0 0 0 1.654.183h.984a2.7 2.7 0 0 0 .447-.046c0 .972.015 1.958.045 2.96a62.78 62.78 0 0 0 .179 3.189h-.179c-.269.03-.522.06-.76.09a4.34 4.34 0 0 1-.626-.045c-.388-1.7-.969-2.93-1.744-3.689-.745-.79-1.803-1.184-3.174-1.184-1.222 0-2.206.273-2.951.82-.715.546-1.073 1.305-1.073 2.277 0 .79.238 1.442.715 1.958a6.249 6.249 0 0 0 1.744 1.23 25.83 25.83 0 0 0 1.967.865 27.83 27.83 0 0 1 3.309 1.549c1.073.546 1.937 1.26 2.593 2.14.685.881 1.028 2.065 1.028 3.553 0 1.579-.402 2.885-1.207 3.917-.775 1.002-1.774 1.746-2.996 2.231a10.916 10.916 0 0 1-3.845.684c-.775 0-1.55-.061-2.324-.182-.746-.122-1.148-.183-1.208-.183-.059 0-.313-.03-.76-.09a46.19 46.19 0 0 0-1.43-.183c-.507-.06-.954-.091-1.342-.091 0-.941-.044-1.989-.134-3.143a308.887 308.887 0 0 0-.223-3.825h.223a6.28 6.28 0 0 1 .671-.046c.209-.03.402-.03.581 0Z"/></svg>