<svg xmlns="http://www.w3.org/2000/svg" width="322" height="104" fill="none"><ellipse cx="63.881" cy="15.183" stroke="#8D6959" stroke-width="2" rx="12.451" ry="12.439"/><ellipse cx="63.881" cy="89.817" stroke="#8D6959" stroke-width="2" rx="12.451" ry="12.439"/><ellipse cx="14.072" cy="64.939" stroke="#8D6959" stroke-width="2" rx="12.451" ry="12.439"/><ellipse cx="88.783" cy="64.939" stroke="#8D6959" stroke-width="2" rx="12.451" ry="12.439"/><ellipse cx="121.154" cy="52.5" stroke="#8D6959" stroke-width="2" rx="12.451" ry="12.439"/><ellipse cx="195.865" cy="52.5" stroke="#8D6959" stroke-width="2" rx="12.451" ry="12.439"/><ellipse cx="158.51" cy="15.183" stroke="#8D6959" stroke-width="2" rx="12.451" ry="12.439"/><ellipse cx="158.51" cy="89.817" stroke="#8D6959" stroke-width="2" rx="12.451" ry="12.439"/><path stroke="#8D6959" stroke-width="2" d="M1.621 64.939c0-6.87 5.575-12.439 12.451-12.439h74.709c6.876 0 12.451 5.57 12.451 12.439 0 6.87-5.575 12.439-12.451 12.439H14.072c-6.876 0-12.45-5.57-12.45-12.439Z"/><path stroke="#8D6959" stroke-width="2" d="M63.881 102.256c-6.877 0-12.451-5.57-12.451-12.44V15.184c0-6.87 5.574-12.44 12.451-12.44 6.877 0 12.451 5.57 12.451 12.44v74.634c0 6.87-5.574 12.439-12.451 12.439Z"/><path stroke="#8D6959" stroke-width="2" d="M5.445 73.643c-4.862-4.857-4.862-12.733 0-17.591L54.982 6.564c4.862-4.858 12.746-4.858 17.609 0 4.862 4.858 4.862 12.734 0 17.592L23.054 73.643c-4.863 4.858-12.746 4.858-17.609 0Z"/><ellipse cx="283.022" cy="15.183" stroke="#8D6959" stroke-width="2" rx="12.451" ry="12.439"/><ellipse cx="283.022" cy="89.817" stroke="#8D6959" stroke-width="2" rx="12.451" ry="12.439"/><ellipse cx="233.217" cy="64.939" stroke="#8D6959" stroke-width="2" rx="12.451" ry="12.439"/><ellipse cx="307.928" cy="64.939" stroke="#8D6959" stroke-width="2" rx="12.451" ry="12.439"/><path stroke="#8D6959" stroke-width="2" d="M220.766 64.939c0-6.87 5.574-12.439 12.451-12.439h74.708c6.877 0 12.452 5.57 12.452 12.439 0 6.87-5.575 12.439-12.452 12.439h-74.708c-6.877 0-12.451-5.57-12.451-12.439Z"/><path stroke="#8D6959" stroke-width="2" d="M283.022 102.256c-6.877 0-12.452-5.57-12.452-12.44V15.184c0-6.87 5.575-12.44 12.452-12.44 6.876 0 12.451 5.57 12.451 12.44v74.634c0 6.87-5.575 12.439-12.451 12.439Z"/><path stroke="#8D6959" stroke-width="2" d="M224.59 73.643c-4.863-4.857-4.863-12.733 0-17.591l49.536-49.488c4.863-4.858 12.747-4.858 17.609 0 4.863 4.858 4.863 12.734 0 17.592l-49.537 49.487c-4.862 4.858-12.746 4.858-17.608 0Z"/><ellipse cx="158.509" cy="52.5" stroke="#8D6959" stroke-width="2" rx="49.805" ry="49.756"/><ellipse cx="158.508" cy="52.5" stroke="#8D6959" stroke-width="2" rx="24.903" ry="24.878"/><path stroke="#8D6959" stroke-width="2" d="M1 1.744h319.377M1 102.5h319.377"/></svg>